<?xml version="1.0" standalone="no"?>
<!DOCTYPE svg PUBLIC "-//W3C//DTD SVG 20010904//EN"
 "http://www.w3.org/TR/2001/REC-SVG-20010904/DTD/svg10.dtd">
<svg version="1.0" xmlns="http://www.w3.org/2000/svg"
 width="485.000000pt" height="485.000000pt" viewBox="0 0 485.000000 485.000000"
 preserveAspectRatio="xMidYMid meet">
<metadata>
Created by potrace 1.14, written by Peter Selinger 2001-2017
</metadata>
<g transform="translate(0.000000,485.000000) scale(0.100000,-0.100000)"
fill="#000000" stroke="none">
<path d="M3040 4842 c0 -4 -13 -20 -28 -37 -24 -26 -102 -121 -236 -289 -17
-21 -36 -43 -42 -50 -5 -6 -57 -69 -114 -141 -57 -71 -107 -132 -110 -135 -3
-3 -62 -75 -131 -160 -423 -525 -419 -520 -442 -511 -12 5 -239 93 -505 195
-265 102 -495 192 -510 200 -26 14 -730 286 -739 286 -6 0 26 -54 124 -202 46
-70 83 -132 83 -138 0 -5 3 -10 8 -10 4 0 16 -17 27 -37 11 -21 22 -40 25 -43
16 -15 90 -131 90 -140 0 -5 4 -10 8 -10 5 0 17 -18 28 -40 10 -22 22 -40 27
-40 4 0 7 -4 7 -10 0 -7 48 -82 87 -136 20 -26 34 -50 39 -66 4 -10 10 -18 14
-18 4 0 10 -8 14 -17 5 -18 26 -53 36 -63 3 -3 25 -36 50 -75 25 -38 47 -72
50 -75 3 -3 14 -22 25 -42 11 -21 23 -38 27 -38 5 0 8 -4 8 -9 0 -5 28 -52 62
-105 132 -201 183 -280 186 -286 3 -7 -120 -163 -183 -234 -6 -6 -39 -47 -74
-91 -36 -44 -70 -85 -78 -91 -7 -6 -13 -15 -13 -19 0 -5 -7 -15 -15 -24 -36
-40 -54 -61 -114 -136 -36 -44 -72 -88 -80 -97 -9 -10 -25 -29 -36 -44 -11
-14 -27 -33 -35 -42 -9 -10 -36 -42 -60 -72 -24 -30 -51 -62 -60 -72 -8 -9
-24 -28 -35 -42 -11 -15 -27 -34 -36 -44 -8 -9 -42 -51 -74 -92 -32 -41 -66
-83 -74 -92 -9 -10 -25 -29 -36 -43 -11 -15 -27 -34 -35 -42 -8 -9 -35 -41
-60 -72 -56 -70 -70 -87 -94 -111 -27 -27 -19 -30 39 -14 28 7 62 16 77 19 15
3 38 9 52 15 15 5 26 7 26 4 0 -4 7 -1 15 6 8 7 15 10 15 6 0 -3 11 -1 24 4
20 7 303 83 356 95 8 2 15 4 15 5 0 1 7 3 15 5 8 2 69 18 135 35 66 17 129 33
141 36 12 2 40 10 63 18 22 9 41 13 41 11 0 -3 11 0 24 5 20 7 303 83 356 95
8 2 15 4 15 5 0 1 7 3 15 5 8 2 69 18 135 35 66 17 130 34 142 36 12 2 34 9
49 14 56 21 94 23 101 3 3 -10 48 -81 98 -158 50 -77 94 -145 96 -151 4 -10
73 -117 217 -336 39 -61 72 -113 72 -116 0 -3 11 -20 25 -38 14 -18 25 -35 25
-38 0 -3 33 -54 73 -115 39 -60 104 -160 142 -221 39 -61 103 -161 143 -221
39 -61 72 -113 72 -117 0 -4 14 -23 30 -42 l29 -35 2 55 c1 30 2 75 4 100 7
140 16 301 20 340 2 25 6 113 10 195 3 83 8 175 10 205 4 51 11 158 20 350 2
41 6 116 9 165 3 50 8 144 11 210 9 198 16 280 23 287 4 4 16 9 27 11 11 1 26
6 33 10 6 5 12 6 12 3 0 -3 11 -1 25 4 14 5 36 12 48 14 12 3 101 25 197 51
96 26 185 48 197 51 12 2 34 9 48 14 14 5 25 7 25 4 0 -4 7 -1 15 6 8 7 15 10
15 6 0 -3 11 -1 25 4 14 5 36 12 48 14 12 3 94 23 182 46 88 23 165 43 170 44
6 1 16 5 23 9 6 5 12 6 12 3 0 -3 11 -1 25 4 14 5 36 12 48 14 12 3 94 23 182
46 88 23 165 43 170 44 6 1 16 5 23 9 6 5 12 6 12 3 0 -3 11 -1 25 4 14 5 36
12 48 14 51 10 193 49 200 56 4 3 -336 138 -755 300 -420 161 -821 315 -891
343 l-129 49 7 112 c4 61 8 140 10 176 5 92 16 286 20 345 2 28 6 111 10 185
3 74 8 153 10 175 4 36 9 126 20 335 2 41 7 125 10 185 4 61 7 132 8 159 l2
50 -57 22 c-32 12 -58 19 -58 16z"/>
</g>
</svg>
